<mxfile host="app.diagrams.net" modified="2022-11-07T13:43:24.879Z" agent="5.0 (Windows NT 10.0; Win64; x64) AppleWebKit/537.36 (KHTML, like Gecko) Chrome/107.0.0.0 Safari/537.36 Edg/107.0.1418.35" etag="KQJk3x4_w6ki7SsEpCjZ" version="18.1.3" type="github">
  <diagram id="C5RBs43oDa-KdzZeNtuy" name="Page-1">
    <mxGraphModel dx="1973" dy="947" grid="1" gridSize="10" guides="1" tooltips="1" connect="1" arrows="1" fold="1" page="1" pageScale="1" pageWidth="827" pageHeight="1169" math="0" shadow="0">
      <root>
        <mxCell id="WIyWlLk6GJQsqaUBKTNV-0" />
        <mxCell id="WIyWlLk6GJQsqaUBKTNV-1" parent="WIyWlLk6GJQsqaUBKTNV-0" />
        <mxCell id="UlDj-ngQr7v3uffEMR4K-0" value="&lt;font style=&quot;font-size: 18px;&quot;&gt;PROBLEM : Keinginan untuk terus meningkatkan performa klasifikasi data dengan melakukan perbandingan algoritma&lt;/font&gt;" style="rounded=1;whiteSpace=wrap;html=1;" vertex="1" parent="WIyWlLk6GJQsqaUBKTNV-1">
          <mxGeometry x="110" y="90" width="290" height="100" as="geometry" />
        </mxCell>
        <mxCell id="UlDj-ngQr7v3uffEMR4K-1" value="&lt;font style=&quot;font-size: 18px;&quot;&gt;OPPORTUNITY : Dapat menyelesaikan proses klasifikasi data dengan performa terbaik&lt;/font&gt;" style="rounded=1;whiteSpace=wrap;html=1;" vertex="1" parent="WIyWlLk6GJQsqaUBKTNV-1">
          <mxGeometry x="440" y="90" width="290" height="100" as="geometry" />
        </mxCell>
        <mxCell id="UlDj-ngQr7v3uffEMR4K-2" value="" style="endArrow=none;html=1;rounded=0;fontSize=18;entryX=0.461;entryY=1.03;entryDx=0;entryDy=0;entryPerimeter=0;" edge="1" parent="WIyWlLk6GJQsqaUBKTNV-1" target="UlDj-ngQr7v3uffEMR4K-0">
          <mxGeometry width="50" height="50" relative="1" as="geometry">
            <mxPoint x="610" y="230" as="sourcePoint" />
            <mxPoint x="490" y="260" as="targetPoint" />
            <Array as="points">
              <mxPoint x="244" y="230" />
            </Array>
          </mxGeometry>
        </mxCell>
        <mxCell id="UlDj-ngQr7v3uffEMR4K-3" value="" style="endArrow=none;html=1;rounded=0;fontSize=18;entryX=0.578;entryY=1.03;entryDx=0;entryDy=0;entryPerimeter=0;" edge="1" parent="WIyWlLk6GJQsqaUBKTNV-1" target="UlDj-ngQr7v3uffEMR4K-1">
          <mxGeometry width="50" height="50" relative="1" as="geometry">
            <mxPoint x="608" y="230" as="sourcePoint" />
            <mxPoint x="490" y="260" as="targetPoint" />
          </mxGeometry>
        </mxCell>
        <mxCell id="UlDj-ngQr7v3uffEMR4K-4" value="" style="endArrow=classic;html=1;rounded=0;fontSize=18;" edge="1" parent="WIyWlLk6GJQsqaUBKTNV-1">
          <mxGeometry width="50" height="50" relative="1" as="geometry">
            <mxPoint x="420" y="230" as="sourcePoint" />
            <mxPoint x="420" y="260" as="targetPoint" />
          </mxGeometry>
        </mxCell>
        <mxCell id="UlDj-ngQr7v3uffEMR4K-5" value="&lt;font style=&quot;font-size: 18px;&quot;&gt;APPROACH : Analisis Perbandingan Algoritma&lt;/font&gt;" style="rounded=1;whiteSpace=wrap;html=1;" vertex="1" parent="WIyWlLk6GJQsqaUBKTNV-1">
          <mxGeometry x="280" y="260" width="290" height="100" as="geometry" />
        </mxCell>
        <mxCell id="UlDj-ngQr7v3uffEMR4K-8" value="" style="endArrow=classic;html=1;rounded=0;fontSize=18;" edge="1" parent="WIyWlLk6GJQsqaUBKTNV-1">
          <mxGeometry width="50" height="50" relative="1" as="geometry">
            <mxPoint x="420" y="358" as="sourcePoint" />
            <mxPoint x="420" y="388" as="targetPoint" />
          </mxGeometry>
        </mxCell>
        <mxCell id="UlDj-ngQr7v3uffEMR4K-9" value="&lt;font style=&quot;font-size: 18px;&quot;&gt;ANALYSIS DEVELOPMENT : Klasifikasi data&amp;nbsp;&lt;/font&gt;" style="rounded=1;whiteSpace=wrap;html=1;" vertex="1" parent="WIyWlLk6GJQsqaUBKTNV-1">
          <mxGeometry x="280" y="390" width="290" height="100" as="geometry" />
        </mxCell>
        <mxCell id="UlDj-ngQr7v3uffEMR4K-10" value="" style="endArrow=classic;html=1;rounded=0;fontSize=18;" edge="1" parent="WIyWlLk6GJQsqaUBKTNV-1">
          <mxGeometry width="50" height="50" relative="1" as="geometry">
            <mxPoint x="420" y="490" as="sourcePoint" />
            <mxPoint x="420" y="520" as="targetPoint" />
          </mxGeometry>
        </mxCell>
        <mxCell id="UlDj-ngQr7v3uffEMR4K-11" value="&lt;font style=&quot;font-size: 18px;&quot;&gt;ANALYSIS IMPLEMENTATION : Menggunakan dataset dari kaggle&lt;/font&gt;" style="rounded=1;whiteSpace=wrap;html=1;" vertex="1" parent="WIyWlLk6GJQsqaUBKTNV-1">
          <mxGeometry x="280" y="520" width="290" height="100" as="geometry" />
        </mxCell>
        <mxCell id="UlDj-ngQr7v3uffEMR4K-12" value="" style="endArrow=classic;html=1;rounded=0;fontSize=18;" edge="1" parent="WIyWlLk6GJQsqaUBKTNV-1">
          <mxGeometry width="50" height="50" relative="1" as="geometry">
            <mxPoint x="420" y="620" as="sourcePoint" />
            <mxPoint x="420" y="650" as="targetPoint" />
          </mxGeometry>
        </mxCell>
        <mxCell id="UlDj-ngQr7v3uffEMR4K-13" value="&lt;font style=&quot;font-size: 18px;&quot;&gt;ANALYSIS MEASUREMENT : Algoritma SVM dan Random Forest&lt;/font&gt;" style="rounded=1;whiteSpace=wrap;html=1;" vertex="1" parent="WIyWlLk6GJQsqaUBKTNV-1">
          <mxGeometry x="280" y="650" width="290" height="100" as="geometry" />
        </mxCell>
        <mxCell id="UlDj-ngQr7v3uffEMR4K-14" value="" style="endArrow=classic;html=1;rounded=0;fontSize=18;" edge="1" parent="WIyWlLk6GJQsqaUBKTNV-1">
          <mxGeometry width="50" height="50" relative="1" as="geometry">
            <mxPoint x="420" y="750" as="sourcePoint" />
            <mxPoint x="420" y="780" as="targetPoint" />
          </mxGeometry>
        </mxCell>
        <mxCell id="UlDj-ngQr7v3uffEMR4K-15" value="&lt;font style=&quot;font-size: 18px;&quot;&gt;RESULT : Memberikan pengetahuan mengenai performa dari kedua algoritma, sehingga dapat diketahui performa algoritma mana yang terbaik dalam menglasifikasi data pada kasus ini.&lt;/font&gt;" style="rounded=1;whiteSpace=wrap;html=1;" vertex="1" parent="WIyWlLk6GJQsqaUBKTNV-1">
          <mxGeometry x="220" y="780" width="410" height="140" as="geometry" />
        </mxCell>
      </root>
    </mxGraphModel>
  </diagram>
</mxfile>
